<svg class="rich-terminal" viewBox="0 0 2837 586.8" xmlns="http://www.w3.org/2000/svg">
    <!-- Generated with Rich https://www.textualize.io -->
    <style>

    @font-face {
        font-family: "Fira Code";
        src: local("FiraCode-Regular"),
                url("https://cdnjs.cloudflare.com/ajax/libs/firacode/6.2.0/woff2/FiraCode-Regular.woff2") format("woff2"),
                url("https://cdnjs.cloudflare.com/ajax/libs/firacode/6.2.0/woff/FiraCode-Regular.woff") format("woff");
        font-style: normal;
        font-weight: 400;
    }
    @font-face {
        font-family: "Fira Code";
        src: local("FiraCode-Bold"),
                url("https://cdnjs.cloudflare.com/ajax/libs/firacode/6.2.0/woff2/FiraCode-Bold.woff2") format("woff2"),
                url("https://cdnjs.cloudflare.com/ajax/libs/firacode/6.2.0/woff/FiraCode-Bold.woff") format("woff");
        font-style: bold;
        font-weight: 700;
    }

    .terminal-3851056196-matrix {
        font-family: Fira Code, monospace;
        font-size: 20px;
        line-height: 24.4px;
        font-variant-east-asian: full-width;
    }

    .terminal-3851056196-title {
        font-size: 18px;
        font-weight: bold;
        font-family: arial;
    }

    .terminal-3851056196-r1 { fill: #c5c8c6 }
.terminal-3851056196-r2 { fill: #e0e0e0 }
.terminal-3851056196-r3 { fill: #94999c }
.terminal-3851056196-r4 { fill: #008000 }
.terminal-3851056196-r5 { fill: #1e90ff }
.terminal-3851056196-r6 { fill: #797979 }
.terminal-3851056196-r7 { fill: #262626 }
.terminal-3851056196-r8 { fill: #0178d4 }
.terminal-3851056196-r9 { fill: #c71585 }
.terminal-3851056196-r10 { fill: #ddedf9;font-weight: bold }
.terminal-3851056196-r11 { fill: #ffa62b;font-weight: bold }
.terminal-3851056196-r12 { fill: #495259 }
    </style>

    <defs>
    <clipPath id="terminal-3851056196-clip-terminal">
      <rect x="0" y="0" width="2817.2" height="535.8" />
    </clipPath>
    <clipPath id="terminal-3851056196-line-0">
    <rect x="0" y="1.5" width="2818.2" height="24.65"/>
            </clipPath>
<clipPath id="terminal-3851056196-line-1">
    <rect x="0" y="25.9" width="2818.2" height="24.65"/>
            </clipPath>
<clipPath id="terminal-3851056196-line-2">
    <rect x="0" y="50.3" width="2818.2" height="24.65"/>
            </clipPath>
<clipPath id="terminal-3851056196-line-3">
    <rect x="0" y="74.7" width="2818.2" height="24.65"/>
            </clipPath>
<clipPath id="terminal-3851056196-line-4">
    <rect x="0" y="99.1" width="2818.2" height="24.65"/>
            </clipPath>
<clipPath id="terminal-3851056196-line-5">
    <rect x="0" y="123.5" width="2818.2" height="24.65"/>
            </clipPath>
<clipPath id="terminal-3851056196-line-6">
    <rect x="0" y="147.9" width="2818.2" height="24.65"/>
            </clipPath>
<clipPath id="terminal-3851056196-line-7">
    <rect x="0" y="172.3" width="2818.2" height="24.65"/>
            </clipPath>
<clipPath id="terminal-3851056196-line-8">
    <rect x="0" y="196.7" width="2818.2" height="24.65"/>
            </clipPath>
<clipPath id="terminal-3851056196-line-9">
    <rect x="0" y="221.1" width="2818.2" height="24.65"/>
            </clipPath>
<clipPath id="terminal-3851056196-line-10">
    <rect x="0" y="245.5" width="2818.2" height="24.65"/>
            </clipPath>
<clipPath id="terminal-3851056196-line-11">
    <rect x="0" y="269.9" width="2818.2" height="24.65"/>
            </clipPath>
<clipPath id="terminal-3851056196-line-12">
    <rect x="0" y="294.3" width="2818.2" height="24.65"/>
            </clipPath>
<clipPath id="terminal-3851056196-line-13">
    <rect x="0" y="318.7" width="2818.2" height="24.65"/>
            </clipPath>
<clipPath id="terminal-3851056196-line-14">
    <rect x="0" y="343.1" width="2818.2" height="24.65"/>
            </clipPath>
<clipPath id="terminal-3851056196-line-15">
    <rect x="0" y="367.5" width="2818.2" height="24.65"/>
            </clipPath>
<clipPath id="terminal-3851056196-line-16">
    <rect x="0" y="391.9" width="2818.2" height="24.65"/>
            </clipPath>
<clipPath id="terminal-3851056196-line-17">
    <rect x="0" y="416.3" width="2818.2" height="24.65"/>
            </clipPath>
<clipPath id="terminal-3851056196-line-18">
    <rect x="0" y="440.7" width="2818.2" height="24.65"/>
            </clipPath>
<clipPath id="terminal-3851056196-line-19">
    <rect x="0" y="465.1" width="2818.2" height="24.65"/>
            </clipPath>
<clipPath id="terminal-3851056196-line-20">
    <rect x="0" y="489.5" width="2818.2" height="24.65"/>
            </clipPath>
    </defs>

    <rect fill="#292929" stroke="rgba(255,255,255,0.35)" stroke-width="1" x="1" y="1" width="2835" height="584.8" rx="8"/><text class="terminal-3851056196-title" fill="#c5c8c6" text-anchor="middle" x="1417" y="27">jtree_ML</text>
            <g transform="translate(26,22)">
            <circle cx="0" cy="0" r="7" fill="#ff5f57"/>
            <circle cx="22" cy="0" r="7" fill="#febc2e"/>
            <circle cx="44" cy="0" r="7" fill="#28c840"/>
            </g>
        
    <g transform="translate(9, 41)" clip-path="url(#terminal-3851056196-clip-terminal)">
    <rect fill="#242f38" x="0" y="1.5" width="12.2" height="24.65" shape-rendering="crispEdges"/><rect fill="#242f38" x="12.2" y="1.5" width="12.2" height="24.65" shape-rendering="crispEdges"/><rect fill="#242f38" x="24.4" y="1.5" width="61" height="24.65" shape-rendering="crispEdges"/><rect fill="#242f38" x="85.4" y="1.5" width="12.2" height="24.65" shape-rendering="crispEdges"/><rect fill="#242f38" x="97.6" y="1.5" width="793" height="24.65" shape-rendering="crispEdges"/><rect fill="#242f38" x="890.6" y="1.5" width="134.2" height="24.65" shape-rendering="crispEdges"/><rect fill="#242f38" x="1024.8" y="1.5" width="866.2" height="24.65" shape-rendering="crispEdges"/><rect fill="#242f38" x="1891" y="1.5" width="805.2" height="24.65" shape-rendering="crispEdges"/><rect fill="#242f38" x="2696.2" y="1.5" width="12.2" height="24.65" shape-rendering="crispEdges"/><rect fill="#242f38" x="2708.4" y="1.5" width="0" height="24.65" shape-rendering="crispEdges"/><rect fill="#242f38" x="2708.4" y="1.5" width="97.6" height="24.65" shape-rendering="crispEdges"/><rect fill="#242f38" x="2806" y="1.5" width="12.2" height="24.65" shape-rendering="crispEdges"/><rect fill="#121212" x="0" y="25.9" width="12.2" height="24.65" shape-rendering="crispEdges"/><rect fill="#121212" x="12.2" y="25.9" width="2793.8" height="24.65" shape-rendering="crispEdges"/><rect fill="#121212" x="2806" y="25.9" width="12.2" height="24.65" shape-rendering="crispEdges"/><rect fill="#121212" x="0" y="50.3" width="12.2" height="24.65" shape-rendering="crispEdges"/><rect fill="#242f38" x="12.2" y="50.3" width="12.2" height="24.65" shape-rendering="crispEdges"/><rect fill="#242f38" x="24.4" y="50.3" width="1500.6" height="24.65" shape-rendering="crispEdges"/><rect fill="#242f38" x="1525" y="50.3" width="12.2" height="24.65" shape-rendering="crispEdges"/><rect fill="#121212" x="1537.2" y="50.3" width="12.2" height="24.65" shape-rendering="crispEdges"/><rect fill="#121212" x="1549.4" y="50.3" width="97.6" height="24.65" shape-rendering="crispEdges"/><rect fill="#121212" x="1647" y="50.3" width="12.2" height="24.65" shape-rendering="crispEdges"/><rect fill="#121212" x="1659.2" y="50.3" width="12.2" height="24.65" shape-rendering="crispEdges"/><rect fill="#121212" x="1671.4" y="50.3" width="73.2" height="24.65" shape-rendering="crispEdges"/><rect fill="#121212" x="1744.6" y="50.3" width="12.2" height="24.65" shape-rendering="crispEdges"/><rect fill="#121212" x="1756.8" y="50.3" width="12.2" height="24.65" shape-rendering="crispEdges"/><rect fill="#121212" x="1769" y="50.3" width="183" height="24.65" shape-rendering="crispEdges"/><rect fill="#121212" x="1952" y="50.3" width="12.2" height="24.65" shape-rendering="crispEdges"/><rect fill="#121212" x="1964.2" y="50.3" width="841.8" height="24.65" shape-rendering="crispEdges"/><rect fill="#121212" x="2806" y="50.3" width="12.2" height="24.65" shape-rendering="crispEdges"/><rect fill="#121212" x="0" y="74.7" width="12.2" height="24.65" shape-rendering="crispEdges"/><rect fill="#242f38" x="12.2" y="74.7" width="12.2" height="24.65" shape-rendering="crispEdges"/><rect fill="#272727" x="24.4" y="74.7" width="24.4" height="24.65" shape-rendering="crispEdges"/><rect fill="#272727" x="48.8" y="74.7" width="207.4" height="24.65" shape-rendering="crispEdges"/><rect fill="#272727" x="256.2" y="74.7" width="1268.8" height="24.65" shape-rendering="crispEdges"/><rect fill="#242f38" x="1525" y="74.7" width="12.2" height="24.65" shape-rendering="crispEdges"/><rect fill="#121212" x="1537.2" y="74.7" width="12.2" height="24.65" shape-rendering="crispEdges"/><rect fill="#121212" x="1549.4" y="74.7" width="97.6" height="24.65" shape-rendering="crispEdges"/><rect fill="#121212" x="1647" y="74.7" width="12.2" height="24.65" shape-rendering="crispEdges"/><rect fill="#121212" x="1659.2" y="74.7" width="1146.8" height="24.65" shape-rendering="crispEdges"/><rect fill="#121212" x="2806" y="74.7" width="12.2" height="24.65" shape-rendering="crispEdges"/><rect fill="#121212" x="0" y="99.1" width="12.2" height="24.65" shape-rendering="crispEdges"/><rect fill="#242f38" x="12.2" y="99.1" width="12.2" height="24.65" shape-rendering="crispEdges"/><rect fill="#272727" x="24.4" y="99.1" width="24.4" height="24.65" shape-rendering="crispEdges"/><rect fill="#272727" x="48.8" y="99.1" width="244" height="24.65" shape-rendering="crispEdges"/><rect fill="#272727" x="292.8" y="99.1" width="1232.2" height="24.65" shape-rendering="crispEdges"/><rect fill="#242f38" x="1525" y="99.1" width="12.2" height="24.65" shape-rendering="crispEdges"/><rect fill="#121212" x="1537.2" y="99.1" width="12.2" height="24.65" shape-rendering="crispEdges"/><rect fill="#121212" x="1549.4" y="99.1" width="1244.4" height="24.65" shape-rendering="crispEdges"/><rect fill="#121212" x="2793.8" y="99.1" width="12.2" height="24.65" shape-rendering="crispEdges"/><rect fill="#121212" x="2806" y="99.1" width="12.2" height="24.65" shape-rendering="crispEdges"/><rect fill="#121212" x="0" y="123.5" width="12.2" height="24.65" shape-rendering="crispEdges"/><rect fill="#242f38" x="12.2" y="123.5" width="12.2" height="24.65" shape-rendering="crispEdges"/><rect fill="#272727" x="24.4" y="123.5" width="24.4" height="24.65" shape-rendering="crispEdges"/><rect fill="#272727" x="48.8" y="123.5" width="207.4" height="24.65" shape-rendering="crispEdges"/><rect fill="#272727" x="256.2" y="123.5" width="1268.8" height="24.65" shape-rendering="crispEdges"/><rect fill="#242f38" x="1525" y="123.5" width="12.2" height="24.65" shape-rendering="crispEdges"/><rect fill="#121212" x="1537.2" y="123.5" width="12.2" height="24.65" shape-rendering="crispEdges"/><rect fill="#121212" x="1549.4" y="123.5" width="1244.4" height="24.65" shape-rendering="crispEdges"/><rect fill="#121212" x="2793.8" y="123.5" width="12.2" height="24.65" shape-rendering="crispEdges"/><rect fill="#121212" x="2806" y="123.5" width="12.2" height="24.65" shape-rendering="crispEdges"/><rect fill="#121212" x="0" y="147.9" width="12.2" height="24.65" shape-rendering="crispEdges"/><rect fill="#242f38" x="12.2" y="147.9" width="12.2" height="24.65" shape-rendering="crispEdges"/><rect fill="#272727" x="24.4" y="147.9" width="24.4" height="24.65" shape-rendering="crispEdges"/><rect fill="#272727" x="48.8" y="147.9" width="244" height="24.65" shape-rendering="crispEdges"/><rect fill="#272727" x="292.8" y="147.9" width="1232.2" height="24.65" shape-rendering="crispEdges"/><rect fill="#242f38" x="1525" y="147.9" width="12.2" height="24.65" shape-rendering="crispEdges"/><rect fill="#121212" x="1537.2" y="147.9" width="12.2" height="24.65" shape-rendering="crispEdges"/><rect fill="#121212" x="1549.4" y="147.9" width="24.4" height="24.65" shape-rendering="crispEdges"/><rect fill="#121212" x="1573.8" y="147.9" width="0" height="24.65" shape-rendering="crispEdges"/><rect fill="#121212" x="1573.8" y="147.9" width="1195.6" height="24.65" shape-rendering="crispEdges"/><rect fill="#121212" x="2769.4" y="147.9" width="24.4" height="24.65" shape-rendering="crispEdges"/><rect fill="#121212" x="2793.8" y="147.9" width="12.2" height="24.65" shape-rendering="crispEdges"/><rect fill="#121212" x="2806" y="147.9" width="12.2" height="24.65" shape-rendering="crispEdges"/><rect fill="#121212" x="0" y="172.3" width="12.2" height="24.65" shape-rendering="crispEdges"/><rect fill="#242f38" x="12.2" y="172.3" width="12.2" height="24.65" shape-rendering="crispEdges"/><rect fill="#272727" x="24.4" y="172.3" width="24.4" height="24.65" shape-rendering="crispEdges"/><rect fill="#272727" x="48.8" y="172.3" width="207.4" height="24.65" shape-rendering="crispEdges"/><rect fill="#272727" x="256.2" y="172.3" width="1268.8" height="24.65" shape-rendering="crispEdges"/><rect fill="#242f38" x="1525" y="172.3" width="12.2" height="24.65" shape-rendering="crispEdges"/><rect fill="#121212" x="1537.2" y="172.3" width="12.2" height="24.65" shape-rendering="crispEdges"/><rect fill="#121212" x="1549.4" y="172.3" width="1244.4" height="24.65" shape-rendering="crispEdges"/><rect fill="#121212" x="2793.8" y="172.3" width="12.2" height="24.65" shape-rendering="crispEdges"/><rect fill="#121212" x="2806" y="172.3" width="12.2" height="24.65" shape-rendering="crispEdges"/><rect fill="#121212" x="0" y="196.7" width="12.2" height="24.65" shape-rendering="crispEdges"/><rect fill="#242f38" x="12.2" y="196.7" width="12.2" height="24.65" shape-rendering="crispEdges"/><rect fill="#272727" x="24.4" y="196.7" width="24.4" height="24.65" shape-rendering="crispEdges"/><rect fill="#0178d4" x="48.8" y="196.7" width="244" height="24.65" shape-rendering="crispEdges"/><rect fill="#272727" x="292.8" y="196.7" width="1232.2" height="24.65" shape-rendering="crispEdges"/><rect fill="#242f38" x="1525" y="196.7" width="12.2" height="24.65" shape-rendering="crispEdges"/><rect fill="#121212" x="1537.2" y="196.7" width="12.2" height="24.65" shape-rendering="crispEdges"/><rect fill="#121212" x="1549.4" y="196.7" width="1244.4" height="24.65" shape-rendering="crispEdges"/><rect fill="#121212" x="2793.8" y="196.7" width="12.2" height="24.65" shape-rendering="crispEdges"/><rect fill="#121212" x="2806" y="196.7" width="12.2" height="24.65" shape-rendering="crispEdges"/><rect fill="#121212" x="0" y="221.1" width="12.2" height="24.65" shape-rendering="crispEdges"/><rect fill="#242f38" x="12.2" y="221.1" width="12.2" height="24.65" shape-rendering="crispEdges"/><rect fill="#272727" x="24.4" y="221.1" width="1500.6" height="24.65" shape-rendering="crispEdges"/><rect fill="#242f38" x="1525" y="221.1" width="12.2" height="24.65" shape-rendering="crispEdges"/><rect fill="#121212" x="1537.2" y="221.1" width="12.2" height="24.65" shape-rendering="crispEdges"/><rect fill="#121212" x="1549.4" y="221.1" width="1244.4" height="24.65" shape-rendering="crispEdges"/><rect fill="#121212" x="2793.8" y="221.1" width="12.2" height="24.65" shape-rendering="crispEdges"/><rect fill="#121212" x="2806" y="221.1" width="12.2" height="24.65" shape-rendering="crispEdges"/><rect fill="#121212" x="0" y="245.5" width="12.2" height="24.65" shape-rendering="crispEdges"/><rect fill="#242f38" x="12.2" y="245.5" width="12.2" height="24.65" shape-rendering="crispEdges"/><rect fill="#272727" x="24.4" y="245.5" width="1500.6" height="24.65" shape-rendering="crispEdges"/><rect fill="#242f38" x="1525" y="245.5" width="12.2" height="24.65" shape-rendering="crispEdges"/><rect fill="#121212" x="1537.2" y="245.5" width="12.2" height="24.65" shape-rendering="crispEdges"/><rect fill="#121212" x="1549.4" y="245.5" width="1244.4" height="24.65" shape-rendering="crispEdges"/><rect fill="#121212" x="2793.8" y="245.5" width="12.2" height="24.65" shape-rendering="crispEdges"/><rect fill="#121212" x="2806" y="245.5" width="12.2" height="24.65" shape-rendering="crispEdges"/><rect fill="#121212" x="0" y="269.9" width="12.2" height="24.65" shape-rendering="crispEdges"/><rect fill="#242f38" x="12.2" y="269.9" width="12.2" height="24.65" shape-rendering="crispEdges"/><rect fill="#272727" x="24.4" y="269.9" width="1500.6" height="24.65" shape-rendering="crispEdges"/><rect fill="#242f38" x="1525" y="269.9" width="12.2" height="24.65" shape-rendering="crispEdges"/><rect fill="#121212" x="1537.2" y="269.9" width="12.2" height="24.65" shape-rendering="crispEdges"/><rect fill="#121212" x="1549.4" y="269.9" width="1244.4" height="24.65" shape-rendering="crispEdges"/><rect fill="#121212" x="2793.8" y="269.9" width="12.2" height="24.65" shape-rendering="crispEdges"/><rect fill="#121212" x="2806" y="269.9" width="12.2" height="24.65" shape-rendering="crispEdges"/><rect fill="#121212" x="0" y="294.3" width="12.2" height="24.65" shape-rendering="crispEdges"/><rect fill="#242f38" x="12.2" y="294.3" width="12.2" height="24.65" shape-rendering="crispEdges"/><rect fill="#272727" x="24.4" y="294.3" width="1500.6" height="24.65" shape-rendering="crispEdges"/><rect fill="#242f38" x="1525" y="294.3" width="12.2" height="24.65" shape-rendering="crispEdges"/><rect fill="#121212" x="1537.2" y="294.3" width="12.2" height="24.65" shape-rendering="crispEdges"/><rect fill="#121212" x="1549.4" y="294.3" width="1244.4" height="24.65" shape-rendering="crispEdges"/><rect fill="#121212" x="2793.8" y="294.3" width="12.2" height="24.65" shape-rendering="crispEdges"/><rect fill="#121212" x="2806" y="294.3" width="12.2" height="24.65" shape-rendering="crispEdges"/><rect fill="#121212" x="0" y="318.7" width="12.2" height="24.65" shape-rendering="crispEdges"/><rect fill="#242f38" x="12.2" y="318.7" width="12.2" height="24.65" shape-rendering="crispEdges"/><rect fill="#272727" x="24.4" y="318.7" width="1500.6" height="24.65" shape-rendering="crispEdges"/><rect fill="#242f38" x="1525" y="318.7" width="12.2" height="24.65" shape-rendering="crispEdges"/><rect fill="#121212" x="1537.2" y="318.7" width="12.2" height="24.65" shape-rendering="crispEdges"/><rect fill="#121212" x="1549.4" y="318.7" width="1244.4" height="24.65" shape-rendering="crispEdges"/><rect fill="#121212" x="2793.8" y="318.7" width="12.2" height="24.65" shape-rendering="crispEdges"/><rect fill="#121212" x="2806" y="318.7" width="12.2" height="24.65" shape-rendering="crispEdges"/><rect fill="#121212" x="0" y="343.1" width="12.2" height="24.65" shape-rendering="crispEdges"/><rect fill="#242f38" x="12.2" y="343.1" width="12.2" height="24.65" shape-rendering="crispEdges"/><rect fill="#272727" x="24.4" y="343.1" width="1500.6" height="24.65" shape-rendering="crispEdges"/><rect fill="#242f38" x="1525" y="343.1" width="12.2" height="24.65" shape-rendering="crispEdges"/><rect fill="#121212" x="1537.2" y="343.1" width="12.2" height="24.65" shape-rendering="crispEdges"/><rect fill="#121212" x="1549.4" y="343.1" width="1244.4" height="24.65" shape-rendering="crispEdges"/><rect fill="#121212" x="2793.8" y="343.1" width="12.2" height="24.65" shape-rendering="crispEdges"/><rect fill="#121212" x="2806" y="343.1" width="12.2" height="24.65" shape-rendering="crispEdges"/><rect fill="#121212" x="0" y="367.5" width="12.2" height="24.65" shape-rendering="crispEdges"/><rect fill="#242f38" x="12.2" y="367.5" width="12.2" height="24.65" shape-rendering="crispEdges"/><rect fill="#272727" x="24.4" y="367.5" width="1500.6" height="24.65" shape-rendering="crispEdges"/><rect fill="#242f38" x="1525" y="367.5" width="12.2" height="24.65" shape-rendering="crispEdges"/><rect fill="#121212" x="1537.2" y="367.5" width="12.2" height="24.65" shape-rendering="crispEdges"/><rect fill="#121212" x="1549.4" y="367.5" width="1244.4" height="24.65" shape-rendering="crispEdges"/><rect fill="#121212" x="2793.8" y="367.5" width="12.2" height="24.65" shape-rendering="crispEdges"/><rect fill="#121212" x="2806" y="367.5" width="12.2" height="24.65" shape-rendering="crispEdges"/><rect fill="#121212" x="0" y="391.9" width="12.2" height="24.65" shape-rendering="crispEdges"/><rect fill="#242f38" x="12.2" y="391.9" width="12.2" height="24.65" shape-rendering="crispEdges"/><rect fill="#272727" x="24.4" y="391.9" width="1500.6" height="24.65" shape-rendering="crispEdges"/><rect fill="#242f38" x="1525" y="391.9" width="12.2" height="24.65" shape-rendering="crispEdges"/><rect fill="#121212" x="1537.2" y="391.9" width="12.2" height="24.65" shape-rendering="crispEdges"/><rect fill="#121212" x="1549.4" y="391.9" width="1244.4" height="24.65" shape-rendering="crispEdges"/><rect fill="#121212" x="2793.8" y="391.9" width="12.2" height="24.65" shape-rendering="crispEdges"/><rect fill="#121212" x="2806" y="391.9" width="12.2" height="24.65" shape-rendering="crispEdges"/><rect fill="#121212" x="0" y="416.3" width="12.2" height="24.65" shape-rendering="crispEdges"/><rect fill="#242f38" x="12.2" y="416.3" width="12.2" height="24.65" shape-rendering="crispEdges"/><rect fill="#272727" x="24.4" y="416.3" width="1500.6" height="24.65" shape-rendering="crispEdges"/><rect fill="#242f38" x="1525" y="416.3" width="12.2" height="24.65" shape-rendering="crispEdges"/><rect fill="#121212" x="1537.2" y="416.3" width="12.2" height="24.65" shape-rendering="crispEdges"/><rect fill="#121212" x="1549.4" y="416.3" width="24.4" height="24.65" shape-rendering="crispEdges"/><rect fill="#121212" x="1573.8" y="416.3" width="0" height="24.65" shape-rendering="crispEdges"/><rect fill="#121212" x="1573.8" y="416.3" width="1195.6" height="24.65" shape-rendering="crispEdges"/><rect fill="#121212" x="2769.4" y="416.3" width="24.4" height="24.65" shape-rendering="crispEdges"/><rect fill="#121212" x="2793.8" y="416.3" width="12.2" height="24.65" shape-rendering="crispEdges"/><rect fill="#121212" x="2806" y="416.3" width="12.2" height="24.65" shape-rendering="crispEdges"/><rect fill="#121212" x="0" y="440.7" width="12.2" height="24.65" shape-rendering="crispEdges"/><rect fill="#242f38" x="12.2" y="440.7" width="12.2" height="24.65" shape-rendering="crispEdges"/><rect fill="#272727" x="24.4" y="440.7" width="1500.6" height="24.65" shape-rendering="crispEdges"/><rect fill="#242f38" x="1525" y="440.7" width="12.2" height="24.65" shape-rendering="crispEdges"/><rect fill="#121212" x="1537.2" y="440.7" width="12.2" height="24.65" shape-rendering="crispEdges"/><rect fill="#121212" x="1549.4" y="440.7" width="1244.4" height="24.65" shape-rendering="crispEdges"/><rect fill="#121212" x="2793.8" y="440.7" width="12.2" height="24.65" shape-rendering="crispEdges"/><rect fill="#121212" x="2806" y="440.7" width="12.2" height="24.65" shape-rendering="crispEdges"/><rect fill="#121212" x="0" y="465.1" width="12.2" height="24.65" shape-rendering="crispEdges"/><rect fill="#242f38" x="12.2" y="465.1" width="12.2" height="24.65" shape-rendering="crispEdges"/><rect fill="#242f38" x="24.4" y="465.1" width="1500.6" height="24.65" shape-rendering="crispEdges"/><rect fill="#242f38" x="1525" y="465.1" width="12.2" height="24.65" shape-rendering="crispEdges"/><rect fill="#121212" x="1537.2" y="465.1" width="12.2" height="24.65" shape-rendering="crispEdges"/><rect fill="#121212" x="1549.4" y="465.1" width="1244.4" height="24.65" shape-rendering="crispEdges"/><rect fill="#121212" x="2793.8" y="465.1" width="12.2" height="24.65" shape-rendering="crispEdges"/><rect fill="#121212" x="2806" y="465.1" width="12.2" height="24.65" shape-rendering="crispEdges"/><rect fill="#121212" x="0" y="489.5" width="12.2" height="24.65" shape-rendering="crispEdges"/><rect fill="#121212" x="12.2" y="489.5" width="2793.8" height="24.65" shape-rendering="crispEdges"/><rect fill="#121212" x="2806" y="489.5" width="12.2" height="24.65" shape-rendering="crispEdges"/><rect fill="#242f38" x="0" y="513.9" width="48.8" height="24.65" shape-rendering="crispEdges"/><rect fill="#242f38" x="48.8" y="513.9" width="134.2" height="24.65" shape-rendering="crispEdges"/><rect fill="#242f38" x="183" y="513.9" width="48.8" height="24.65" shape-rendering="crispEdges"/><rect fill="#242f38" x="231.8" y="513.9" width="146.4" height="24.65" shape-rendering="crispEdges"/><rect fill="#242f38" x="378.2" y="513.9" width="36.6" height="24.65" shape-rendering="crispEdges"/><rect fill="#242f38" x="414.8" y="513.9" width="61" height="24.65" shape-rendering="crispEdges"/><rect fill="#242f38" x="475.8" y="513.9" width="2196" height="24.65" shape-rendering="crispEdges"/><rect fill="#242f38" x="2671.8" y="513.9" width="12.2" height="24.65" shape-rendering="crispEdges"/><rect fill="#242f38" x="2684" y="513.9" width="24.4" height="24.65" shape-rendering="crispEdges"/><rect fill="#242f38" x="2708.4" y="513.9" width="97.6" height="24.65" shape-rendering="crispEdges"/><rect fill="#242f38" x="2806" y="513.9" width="12.2" height="24.65" shape-rendering="crispEdges"/>
    <g class="terminal-3851056196-matrix">
    <text class="terminal-3851056196-r2" x="12.2" y="20" textLength="12.2" clip-path="url(#terminal-3851056196-line-0)">⭘</text><text class="terminal-3851056196-r2" x="890.6" y="20" textLength="134.2" clip-path="url(#terminal-3851056196-line-0)">jtree_ML&#160;—&#160;</text><text class="terminal-3851056196-r3" x="1024.8" y="20" textLength="866.2" clip-path="url(#terminal-3851056196-line-0)">A&#160;JSON&#160;exploration&#160;tool&#160;for&#160;influential&#160;Machine&#160;Learning&#160;Papers&#160;(0.3.0)</text><text class="terminal-3851056196-r1" x="2818.2" y="20" textLength="12.2" clip-path="url(#terminal-3851056196-line-0)">
</text><text class="terminal-3851056196-r4" x="0" y="44.4" textLength="12.2" clip-path="url(#terminal-3851056196-line-1)">┌</text><text class="terminal-3851056196-r4" x="12.2" y="44.4" textLength="2793.8" clip-path="url(#terminal-3851056196-line-1)">─────────────────────────────────────────────────────────────────────────────────────────────────────────────────────────────────────────────────────────────────────────────────────────────────────────────────────────────────────</text><text class="terminal-3851056196-r4" x="2806" y="44.4" textLength="12.2" clip-path="url(#terminal-3851056196-line-1)">┐</text><text class="terminal-3851056196-r1" x="2818.2" y="44.4" textLength="12.2" clip-path="url(#terminal-3851056196-line-1)">
</text><text class="terminal-3851056196-r4" x="0" y="68.8" textLength="12.2" clip-path="url(#terminal-3851056196-line-2)">│</text><text class="terminal-3851056196-r5" x="12.2" y="68.8" textLength="12.2" clip-path="url(#terminal-3851056196-line-2)">┌</text><text class="terminal-3851056196-r5" x="24.4" y="68.8" textLength="1500.6" clip-path="url(#terminal-3851056196-line-2)">───────────────────────────────────────────────────────────────────────────────────────────────────────────────────────────</text><text class="terminal-3851056196-r5" x="1525" y="68.8" textLength="12.2" clip-path="url(#terminal-3851056196-line-2)">┐</text><text class="terminal-3851056196-r2" x="1549.4" y="68.8" textLength="97.6" clip-path="url(#terminal-3851056196-line-2)">Document</text><text class="terminal-3851056196-r6" x="1671.4" y="68.8" textLength="73.2" clip-path="url(#terminal-3851056196-line-2)">Search</text><text class="terminal-3851056196-r6" x="1769" y="68.8" textLength="183" clip-path="url(#terminal-3851056196-line-2)">Manage&#160;Datasets</text><text class="terminal-3851056196-r4" x="2806" y="68.8" textLength="12.2" clip-path="url(#terminal-3851056196-line-2)">│</text><text class="terminal-3851056196-r1" x="2818.2" y="68.8" textLength="12.2" clip-path="url(#terminal-3851056196-line-2)">
</text><text class="terminal-3851056196-r4" x="0" y="93.2" textLength="12.2" clip-path="url(#terminal-3851056196-line-3)">│</text><text class="terminal-3851056196-r5" x="12.2" y="93.2" textLength="12.2" clip-path="url(#terminal-3851056196-line-3)">│</text><text class="terminal-3851056196-r2" x="24.4" y="93.2" textLength="24.4" clip-path="url(#terminal-3851056196-line-3)">▶&#160;</text><text class="terminal-3851056196-r2" x="48.8" y="93.2" textLength="207.4" clip-path="url(#terminal-3851056196-line-3)">{}&#160;2023_COLT.json</text><text class="terminal-3851056196-r5" x="1525" y="93.2" textLength="12.2" clip-path="url(#terminal-3851056196-line-3)">│</text><text class="terminal-3851056196-r7" x="1537.2" y="93.2" textLength="12.2" clip-path="url(#terminal-3851056196-line-3)">╸</text><text class="terminal-3851056196-r8" x="1549.4" y="93.2" textLength="97.6" clip-path="url(#terminal-3851056196-line-3)">━━━━━━━━</text><text class="terminal-3851056196-r7" x="1647" y="93.2" textLength="12.2" clip-path="url(#terminal-3851056196-line-3)">╺</text><text class="terminal-3851056196-r7" x="1659.2" y="93.2" textLength="1146.8" clip-path="url(#terminal-3851056196-line-3)">━━━━━━━━━━━━━━━━━━━━━━━━━━━━━━━━━━━━━━━━━━━━━━━━━━━━━━━━━━━━━━━━━━━━━━━━━━━━━━━━━━━━━━━━━━━━━━</text><text class="terminal-3851056196-r4" x="2806" y="93.2" textLength="12.2" clip-path="url(#terminal-3851056196-line-3)">│</text><text class="terminal-3851056196-r1" x="2818.2" y="93.2" textLength="12.2" clip-path="url(#terminal-3851056196-line-3)">
</text><text class="terminal-3851056196-r4" x="0" y="117.6" textLength="12.2" clip-path="url(#terminal-3851056196-line-4)">│</text><text class="terminal-3851056196-r5" x="12.2" y="117.6" textLength="12.2" clip-path="url(#terminal-3851056196-line-4)">│</text><text class="terminal-3851056196-r2" x="24.4" y="117.6" textLength="24.4" clip-path="url(#terminal-3851056196-line-4)">▶&#160;</text><text class="terminal-3851056196-r2" x="48.8" y="117.6" textLength="244" clip-path="url(#terminal-3851056196-line-4)">{}&#160;2017_AISTATS.json</text><text class="terminal-3851056196-r5" x="1525" y="117.6" textLength="12.2" clip-path="url(#terminal-3851056196-line-4)">│</text><text class="terminal-3851056196-r9" x="1537.2" y="117.6" textLength="12.2" clip-path="url(#terminal-3851056196-line-4)">┌</text><text class="terminal-3851056196-r9" x="1549.4" y="117.6" textLength="1244.4" clip-path="url(#terminal-3851056196-line-4)">──────────────────────────────────────────────────────────────────────────────────────────────────────</text><text class="terminal-3851056196-r9" x="2793.8" y="117.6" textLength="12.2" clip-path="url(#terminal-3851056196-line-4)">┐</text><text class="terminal-3851056196-r4" x="2806" y="117.6" textLength="12.2" clip-path="url(#terminal-3851056196-line-4)">│</text><text class="terminal-3851056196-r1" x="2818.2" y="117.6" textLength="12.2" clip-path="url(#terminal-3851056196-line-4)">
</text><text class="terminal-3851056196-r4" x="0" y="142" textLength="12.2" clip-path="url(#terminal-3851056196-line-5)">│</text><text class="terminal-3851056196-r5" x="12.2" y="142" textLength="12.2" clip-path="url(#terminal-3851056196-line-5)">│</text><text class="terminal-3851056196-r2" x="24.4" y="142" textLength="24.4" clip-path="url(#terminal-3851056196-line-5)">▶&#160;</text><text class="terminal-3851056196-r2" x="48.8" y="142" textLength="207.4" clip-path="url(#terminal-3851056196-line-5)">{}&#160;2017_COLT.json</text><text class="terminal-3851056196-r5" x="1525" y="142" textLength="12.2" clip-path="url(#terminal-3851056196-line-5)">│</text><text class="terminal-3851056196-r9" x="1537.2" y="142" textLength="12.2" clip-path="url(#terminal-3851056196-line-5)">│</text><text class="terminal-3851056196-r9" x="2793.8" y="142" textLength="12.2" clip-path="url(#terminal-3851056196-line-5)">│</text><text class="terminal-3851056196-r4" x="2806" y="142" textLength="12.2" clip-path="url(#terminal-3851056196-line-5)">│</text><text class="terminal-3851056196-r1" x="2818.2" y="142" textLength="12.2" clip-path="url(#terminal-3851056196-line-5)">
</text><text class="terminal-3851056196-r4" x="0" y="166.4" textLength="12.2" clip-path="url(#terminal-3851056196-line-6)">│</text><text class="terminal-3851056196-r5" x="12.2" y="166.4" textLength="12.2" clip-path="url(#terminal-3851056196-line-6)">│</text><text class="terminal-3851056196-r2" x="24.4" y="166.4" textLength="24.4" clip-path="url(#terminal-3851056196-line-6)">▶&#160;</text><text class="terminal-3851056196-r2" x="48.8" y="166.4" textLength="244" clip-path="url(#terminal-3851056196-line-6)">{}&#160;2018_AISTATS.json</text><text class="terminal-3851056196-r5" x="1525" y="166.4" textLength="12.2" clip-path="url(#terminal-3851056196-line-6)">│</text><text class="terminal-3851056196-r9" x="1537.2" y="166.4" textLength="12.2" clip-path="url(#terminal-3851056196-line-6)">│</text><text class="terminal-3851056196-r9" x="2793.8" y="166.4" textLength="12.2" clip-path="url(#terminal-3851056196-line-6)">│</text><text class="terminal-3851056196-r4" x="2806" y="166.4" textLength="12.2" clip-path="url(#terminal-3851056196-line-6)">│</text><text class="terminal-3851056196-r1" x="2818.2" y="166.4" textLength="12.2" clip-path="url(#terminal-3851056196-line-6)">
</text><text class="terminal-3851056196-r4" x="0" y="190.8" textLength="12.2" clip-path="url(#terminal-3851056196-line-7)">│</text><text class="terminal-3851056196-r5" x="12.2" y="190.8" textLength="12.2" clip-path="url(#terminal-3851056196-line-7)">│</text><text class="terminal-3851056196-r2" x="24.4" y="190.8" textLength="24.4" clip-path="url(#terminal-3851056196-line-7)">▶&#160;</text><text class="terminal-3851056196-r2" x="48.8" y="190.8" textLength="207.4" clip-path="url(#terminal-3851056196-line-7)">{}&#160;2018_COLT.json</text><text class="terminal-3851056196-r5" x="1525" y="190.8" textLength="12.2" clip-path="url(#terminal-3851056196-line-7)">│</text><text class="terminal-3851056196-r9" x="1537.2" y="190.8" textLength="12.2" clip-path="url(#terminal-3851056196-line-7)">│</text><text class="terminal-3851056196-r9" x="2793.8" y="190.8" textLength="12.2" clip-path="url(#terminal-3851056196-line-7)">│</text><text class="terminal-3851056196-r4" x="2806" y="190.8" textLength="12.2" clip-path="url(#terminal-3851056196-line-7)">│</text><text class="terminal-3851056196-r1" x="2818.2" y="190.8" textLength="12.2" clip-path="url(#terminal-3851056196-line-7)">
</text><text class="terminal-3851056196-r4" x="0" y="215.2" textLength="12.2" clip-path="url(#terminal-3851056196-line-8)">│</text><text class="terminal-3851056196-r5" x="12.2" y="215.2" textLength="12.2" clip-path="url(#terminal-3851056196-line-8)">│</text><text class="terminal-3851056196-r2" x="24.4" y="215.2" textLength="24.4" clip-path="url(#terminal-3851056196-line-8)">▶&#160;</text><text class="terminal-3851056196-r10" x="48.8" y="215.2" textLength="244" clip-path="url(#terminal-3851056196-line-8)">{}&#160;2019_AISTATS.json</text><text class="terminal-3851056196-r5" x="1525" y="215.2" textLength="12.2" clip-path="url(#terminal-3851056196-line-8)">│</text><text class="terminal-3851056196-r9" x="1537.2" y="215.2" textLength="12.2" clip-path="url(#terminal-3851056196-line-8)">│</text><text class="terminal-3851056196-r9" x="2793.8" y="215.2" textLength="12.2" clip-path="url(#terminal-3851056196-line-8)">│</text><text class="terminal-3851056196-r4" x="2806" y="215.2" textLength="12.2" clip-path="url(#terminal-3851056196-line-8)">│</text><text class="terminal-3851056196-r1" x="2818.2" y="215.2" textLength="12.2" clip-path="url(#terminal-3851056196-line-8)">
</text><text class="terminal-3851056196-r4" x="0" y="239.6" textLength="12.2" clip-path="url(#terminal-3851056196-line-9)">│</text><text class="terminal-3851056196-r5" x="12.2" y="239.6" textLength="12.2" clip-path="url(#terminal-3851056196-line-9)">│</text><text class="terminal-3851056196-r5" x="1525" y="239.6" textLength="12.2" clip-path="url(#terminal-3851056196-line-9)">│</text><text class="terminal-3851056196-r9" x="1537.2" y="239.6" textLength="12.2" clip-path="url(#terminal-3851056196-line-9)">│</text><text class="terminal-3851056196-r9" x="2793.8" y="239.6" textLength="12.2" clip-path="url(#terminal-3851056196-line-9)">│</text><text class="terminal-3851056196-r4" x="2806" y="239.6" textLength="12.2" clip-path="url(#terminal-3851056196-line-9)">│</text><text class="terminal-3851056196-r1" x="2818.2" y="239.6" textLength="12.2" clip-path="url(#terminal-3851056196-line-9)">
</text><text class="terminal-3851056196-r4" x="0" y="264" textLength="12.2" clip-path="url(#terminal-3851056196-line-10)">│</text><text class="terminal-3851056196-r5" x="12.2" y="264" textLength="12.2" clip-path="url(#terminal-3851056196-line-10)">│</text><text class="terminal-3851056196-r5" x="1525" y="264" textLength="12.2" clip-path="url(#terminal-3851056196-line-10)">│</text><text class="terminal-3851056196-r9" x="1537.2" y="264" textLength="12.2" clip-path="url(#terminal-3851056196-line-10)">│</text><text class="terminal-3851056196-r9" x="2793.8" y="264" textLength="12.2" clip-path="url(#terminal-3851056196-line-10)">│</text><text class="terminal-3851056196-r4" x="2806" y="264" textLength="12.2" clip-path="url(#terminal-3851056196-line-10)">│</text><text class="terminal-3851056196-r1" x="2818.2" y="264" textLength="12.2" clip-path="url(#terminal-3851056196-line-10)">
</text><text class="terminal-3851056196-r4" x="0" y="288.4" textLength="12.2" clip-path="url(#terminal-3851056196-line-11)">│</text><text class="terminal-3851056196-r5" x="12.2" y="288.4" textLength="12.2" clip-path="url(#terminal-3851056196-line-11)">│</text><text class="terminal-3851056196-r5" x="1525" y="288.4" textLength="12.2" clip-path="url(#terminal-3851056196-line-11)">│</text><text class="terminal-3851056196-r9" x="1537.2" y="288.4" textLength="12.2" clip-path="url(#terminal-3851056196-line-11)">│</text><text class="terminal-3851056196-r9" x="2793.8" y="288.4" textLength="12.2" clip-path="url(#terminal-3851056196-line-11)">│</text><text class="terminal-3851056196-r4" x="2806" y="288.4" textLength="12.2" clip-path="url(#terminal-3851056196-line-11)">│</text><text class="terminal-3851056196-r1" x="2818.2" y="288.4" textLength="12.2" clip-path="url(#terminal-3851056196-line-11)">
</text><text class="terminal-3851056196-r4" x="0" y="312.8" textLength="12.2" clip-path="url(#terminal-3851056196-line-12)">│</text><text class="terminal-3851056196-r5" x="12.2" y="312.8" textLength="12.2" clip-path="url(#terminal-3851056196-line-12)">│</text><text class="terminal-3851056196-r5" x="1525" y="312.8" textLength="12.2" clip-path="url(#terminal-3851056196-line-12)">│</text><text class="terminal-3851056196-r9" x="1537.2" y="312.8" textLength="12.2" clip-path="url(#terminal-3851056196-line-12)">│</text><text class="terminal-3851056196-r9" x="2793.8" y="312.8" textLength="12.2" clip-path="url(#terminal-3851056196-line-12)">│</text><text class="terminal-3851056196-r4" x="2806" y="312.8" textLength="12.2" clip-path="url(#terminal-3851056196-line-12)">│</text><text class="terminal-3851056196-r1" x="2818.2" y="312.8" textLength="12.2" clip-path="url(#terminal-3851056196-line-12)">
</text><text class="terminal-3851056196-r4" x="0" y="337.2" textLength="12.2" clip-path="url(#terminal-3851056196-line-13)">│</text><text class="terminal-3851056196-r5" x="12.2" y="337.2" textLength="12.2" clip-path="url(#terminal-3851056196-line-13)">│</text><text class="terminal-3851056196-r5" x="1525" y="337.2" textLength="12.2" clip-path="url(#terminal-3851056196-line-13)">│</text><text class="terminal-3851056196-r9" x="1537.2" y="337.2" textLength="12.2" clip-path="url(#terminal-3851056196-line-13)">│</text><text class="terminal-3851056196-r9" x="2793.8" y="337.2" textLength="12.2" clip-path="url(#terminal-3851056196-line-13)">│</text><text class="terminal-3851056196-r4" x="2806" y="337.2" textLength="12.2" clip-path="url(#terminal-3851056196-line-13)">│</text><text class="terminal-3851056196-r1" x="2818.2" y="337.2" textLength="12.2" clip-path="url(#terminal-3851056196-line-13)">
</text><text class="terminal-3851056196-r4" x="0" y="361.6" textLength="12.2" clip-path="url(#terminal-3851056196-line-14)">│</text><text class="terminal-3851056196-r5" x="12.2" y="361.6" textLength="12.2" clip-path="url(#terminal-3851056196-line-14)">│</text><text class="terminal-3851056196-r5" x="1525" y="361.6" textLength="12.2" clip-path="url(#terminal-3851056196-line-14)">│</text><text class="terminal-3851056196-r9" x="1537.2" y="361.6" textLength="12.2" clip-path="url(#terminal-3851056196-line-14)">│</text><text class="terminal-3851056196-r9" x="2793.8" y="361.6" textLength="12.2" clip-path="url(#terminal-3851056196-line-14)">│</text><text class="terminal-3851056196-r4" x="2806" y="361.6" textLength="12.2" clip-path="url(#terminal-3851056196-line-14)">│</text><text class="terminal-3851056196-r1" x="2818.2" y="361.6" textLength="12.2" clip-path="url(#terminal-3851056196-line-14)">
</text><text class="terminal-3851056196-r4" x="0" y="386" textLength="12.2" clip-path="url(#terminal-3851056196-line-15)">│</text><text class="terminal-3851056196-r5" x="12.2" y="386" textLength="12.2" clip-path="url(#terminal-3851056196-line-15)">│</text><text class="terminal-3851056196-r5" x="1525" y="386" textLength="12.2" clip-path="url(#terminal-3851056196-line-15)">│</text><text class="terminal-3851056196-r9" x="1537.2" y="386" textLength="12.2" clip-path="url(#terminal-3851056196-line-15)">│</text><text class="terminal-3851056196-r9" x="2793.8" y="386" textLength="12.2" clip-path="url(#terminal-3851056196-line-15)">│</text><text class="terminal-3851056196-r4" x="2806" y="386" textLength="12.2" clip-path="url(#terminal-3851056196-line-15)">│</text><text class="terminal-3851056196-r1" x="2818.2" y="386" textLength="12.2" clip-path="url(#terminal-3851056196-line-15)">
</text><text class="terminal-3851056196-r4" x="0" y="410.4" textLength="12.2" clip-path="url(#terminal-3851056196-line-16)">│</text><text class="terminal-3851056196-r5" x="12.2" y="410.4" textLength="12.2" clip-path="url(#terminal-3851056196-line-16)">│</text><text class="terminal-3851056196-r5" x="1525" y="410.4" textLength="12.2" clip-path="url(#terminal-3851056196-line-16)">│</text><text class="terminal-3851056196-r9" x="1537.2" y="410.4" textLength="12.2" clip-path="url(#terminal-3851056196-line-16)">│</text><text class="terminal-3851056196-r9" x="2793.8" y="410.4" textLength="12.2" clip-path="url(#terminal-3851056196-line-16)">│</text><text class="terminal-3851056196-r4" x="2806" y="410.4" textLength="12.2" clip-path="url(#terminal-3851056196-line-16)">│</text><text class="terminal-3851056196-r1" x="2818.2" y="410.4" textLength="12.2" clip-path="url(#terminal-3851056196-line-16)">
</text><text class="terminal-3851056196-r4" x="0" y="434.8" textLength="12.2" clip-path="url(#terminal-3851056196-line-17)">│</text><text class="terminal-3851056196-r5" x="12.2" y="434.8" textLength="12.2" clip-path="url(#terminal-3851056196-line-17)">│</text><text class="terminal-3851056196-r5" x="1525" y="434.8" textLength="12.2" clip-path="url(#terminal-3851056196-line-17)">│</text><text class="terminal-3851056196-r9" x="1537.2" y="434.8" textLength="12.2" clip-path="url(#terminal-3851056196-line-17)">│</text><text class="terminal-3851056196-r9" x="2793.8" y="434.8" textLength="12.2" clip-path="url(#terminal-3851056196-line-17)">│</text><text class="terminal-3851056196-r4" x="2806" y="434.8" textLength="12.2" clip-path="url(#terminal-3851056196-line-17)">│</text><text class="terminal-3851056196-r1" x="2818.2" y="434.8" textLength="12.2" clip-path="url(#terminal-3851056196-line-17)">
</text><text class="terminal-3851056196-r4" x="0" y="459.2" textLength="12.2" clip-path="url(#terminal-3851056196-line-18)">│</text><text class="terminal-3851056196-r5" x="12.2" y="459.2" textLength="12.2" clip-path="url(#terminal-3851056196-line-18)">│</text><text class="terminal-3851056196-r5" x="1525" y="459.2" textLength="12.2" clip-path="url(#terminal-3851056196-line-18)">│</text><text class="terminal-3851056196-r9" x="1537.2" y="459.2" textLength="12.2" clip-path="url(#terminal-3851056196-line-18)">│</text><text class="terminal-3851056196-r9" x="2793.8" y="459.2" textLength="12.2" clip-path="url(#terminal-3851056196-line-18)">│</text><text class="terminal-3851056196-r4" x="2806" y="459.2" textLength="12.2" clip-path="url(#terminal-3851056196-line-18)">│</text><text class="terminal-3851056196-r1" x="2818.2" y="459.2" textLength="12.2" clip-path="url(#terminal-3851056196-line-18)">
</text><text class="terminal-3851056196-r4" x="0" y="483.6" textLength="12.2" clip-path="url(#terminal-3851056196-line-19)">│</text><text class="terminal-3851056196-r5" x="12.2" y="483.6" textLength="12.2" clip-path="url(#terminal-3851056196-line-19)">└</text><text class="terminal-3851056196-r5" x="24.4" y="483.6" textLength="1500.6" clip-path="url(#terminal-3851056196-line-19)">───────────────────────────────────────────────────────────────────────────────────────────────────────────────────────────</text><text class="terminal-3851056196-r5" x="1525" y="483.6" textLength="12.2" clip-path="url(#terminal-3851056196-line-19)">┘</text><text class="terminal-3851056196-r9" x="1537.2" y="483.6" textLength="12.2" clip-path="url(#terminal-3851056196-line-19)">└</text><text class="terminal-3851056196-r9" x="1549.4" y="483.6" textLength="1244.4" clip-path="url(#terminal-3851056196-line-19)">──────────────────────────────────────────────────────────────────────────────────────────────────────</text><text class="terminal-3851056196-r9" x="2793.8" y="483.6" textLength="12.2" clip-path="url(#terminal-3851056196-line-19)">┘</text><text class="terminal-3851056196-r4" x="2806" y="483.6" textLength="12.2" clip-path="url(#terminal-3851056196-line-19)">│</text><text class="terminal-3851056196-r1" x="2818.2" y="483.6" textLength="12.2" clip-path="url(#terminal-3851056196-line-19)">
</text><text class="terminal-3851056196-r4" x="0" y="508" textLength="12.2" clip-path="url(#terminal-3851056196-line-20)">└</text><text class="terminal-3851056196-r4" x="12.2" y="508" textLength="2793.8" clip-path="url(#terminal-3851056196-line-20)">─────────────────────────────────────────────────────────────────────────────────────────────────────────────────────────────────────────────────────────────────────────────────────────────────────────────────────────────────────</text><text class="terminal-3851056196-r4" x="2806" y="508" textLength="12.2" clip-path="url(#terminal-3851056196-line-20)">┘</text><text class="terminal-3851056196-r1" x="2818.2" y="508" textLength="12.2" clip-path="url(#terminal-3851056196-line-20)">
</text><text class="terminal-3851056196-r11" x="0" y="532.4" textLength="48.8" clip-path="url(#terminal-3851056196-line-21)">&#160;^s&#160;</text><text class="terminal-3851056196-r2" x="48.8" y="532.4" textLength="134.2" clip-path="url(#terminal-3851056196-line-21)">Screenshot&#160;</text><text class="terminal-3851056196-r11" x="183" y="532.4" textLength="48.8" clip-path="url(#terminal-3851056196-line-21)">&#160;^t&#160;</text><text class="terminal-3851056196-r2" x="231.8" y="532.4" textLength="146.4" clip-path="url(#terminal-3851056196-line-21)">Toggle&#160;root&#160;</text><text class="terminal-3851056196-r11" x="378.2" y="532.4" textLength="36.6" clip-path="url(#terminal-3851056196-line-21)">&#160;q&#160;</text><text class="terminal-3851056196-r2" x="414.8" y="532.4" textLength="61" clip-path="url(#terminal-3851056196-line-21)">Quit&#160;</text><text class="terminal-3851056196-r12" x="2671.8" y="532.4" textLength="12.2" clip-path="url(#terminal-3851056196-line-21)">▏</text><text class="terminal-3851056196-r11" x="2684" y="532.4" textLength="24.4" clip-path="url(#terminal-3851056196-line-21)">^p</text><text class="terminal-3851056196-r2" x="2708.4" y="532.4" textLength="97.6" clip-path="url(#terminal-3851056196-line-21)">&#160;palette</text>
    </g>
    </g>
</svg>
